<svg width="2500" height="2500" viewBox="0 0 2500 2500" fill="none" xmlns="http://www.w3.org/2000/svg">
<path d="M322 765.685L1247.72 278M322 765.685V1094.18M322 765.685L934.513 1098.4M1247.72 278L1555.69 439.273M1247.72 278V602.758M2179 765.685V1739.37M2179 765.685L1870.43 604.094M2179 765.685L1870.9 932.041M1247.72 1268.53L934.513 1098.4M1247.72 1268.53L1562.81 1098.4M1247.72 1268.53V1580.18M2179 1739.37L1877.51 1895.61M2179 1739.37L1875.35 1580.18M1247.72 2222L322 1739.37M1247.72 2222L1576.02 2051.86M1247.72 2222V1901.09V1580.18M322 1739.37V1416.77M322 1739.37L629.647 1572.58M322 1094.18V1416.77M322 1094.18L629.647 1255.69M322 1094.18L1247.72 602.758M1555.69 439.273L1870.43 604.094M1555.69 439.273V770.324M1555.69 439.273L1247.72 602.758M934.513 1098.4L1555.69 770.324M1870.43 604.094L1555.69 770.324M1870.43 604.094L1870.9 932.041M1562.81 1098.4L1870.9 932.041M1562.81 1098.4L1571.69 1739.37M1576.02 2051.86L1877.51 1895.61M1576.02 2051.86L1571.69 1739.37M1576.02 2051.86L629.647 1572.58M1870.9 932.041L1875.35 1580.18M1877.51 1895.61L1571.69 1739.37M1877.51 1895.61L1875.35 1580.18M1247.72 1580.18L629.647 1255.69M322 1416.77L629.647 1255.69M322 1416.77L629.647 1572.58" stroke="#F4F6F3" stroke-width="15"/>
</svg>
